<?xml version="1.0" encoding="UTF-8"?><svg id="Capa_1" xmlns="http://www.w3.org/2000/svg" viewBox="0 0 725.6 158"><path d="M358,80.2V0h33v80.2c0,21.3-7.3,39.4-21.9,54.4-14.6,15-32.2,22.5-52.9,22.5s-38.4-7.5-53.1-22.5c-14.7-15-22.1-33.1-22.1-54.4V0h31v79.6c.2,12.7,4.5,23.2,12.6,31.5,8.5,8.6,19,12.9,31.7,12.9s20.8-4.3,29.1-12.9c8.4-8.6,12.5-18.9,12.6-30.9ZM76.4,34c11.1,0,20.9,4.3,29.1,12.9,8.4,8.6,12.5,18.9,12.5,30.9v80.2h32v-80.2c0-21.3-7.3-39.4-21.9-54.4C113.5,8.4,95.9.9,75.2.9s-38.4,7.5-53.1,22.5C7.4,38.4,0,56.5,0,77.8v80.2h32v-79.5c.3-12.7,4.5-23.2,12.7-31.5,8.5-8.8,19.1-13,31.7-13ZM179,158h33V1h-33v157ZM409.8,1l60.5,157h36.6L568.5,1h-33.6l-45.4,117.1L444.4,1h-34.6ZM647.1.8c-43.4,0-78.6,35.1-78.6,78.6s35.2,78.6,78.6,78.6,78.6-35.1,78.6-78.6S690.5.8,647.1.8ZM647.1,127.2c-26.4,0-47.8-21.4-47.8-47.8s21.4-47.8,47.8-47.8,47.8,21.4,47.8,47.8-21.4,47.8-47.8,47.8Z"/></svg>