<?xml version="1.0" encoding="UTF-8"?>
<svg id="Capa_1" data-name="Capa 1" xmlns="http://www.w3.org/2000/svg" viewBox="0 0 254.38 184.59">
  <path d="M239.07,29.54c-12.63-16.39-29.36-25.82-50.2-28.31-20.84-2.49-39.68,2.7-56.55,15.69l-2.64,2.03C115.94,7.15,98.07,0,78.5,0,35.09,0,0,35.09,0,78.5s35.19,78.5,78.5,78.5,78.5-35.09,78.5-78.5c0-12.27-2.81-23.87-7.81-34.21l2.09-1.61c10.24-7.51,21.11-10.59,32.68-9.16,12.15,1.36,21.94,7.19,29.69,17.24,6.77,8.79,9.35,19.17,7.6,30.98-1.68,11.9-7.34,21.42-16.84,28.75l-63.49,48.93,19.4,25.17,63.49-48.93c16.86-12.99,26.74-29.81,29.7-50.52,2.97-20.71-1.83-39.22-14.46-55.6ZM78.5,126.33c-26.37,0-47.72-21.36-47.72-47.72s21.36-47.72,47.72-47.72c9.53,0,18.39,2.8,25.84,7.6l-35.51,27.37,19.52,25.33,35.53-27.38c1.52,4.66,2.35,9.63,2.35,14.8,0,26.37-21.36,47.72-47.72,47.72Z"/>
</svg>